<svg width="660" height="183" viewBox="0 0 660 183" fill="none" xmlns="http://www.w3.org/2000/svg">
<path d="M99.5107 6.4707C131.354 -11.9138 171.158 11.0666 171.158 47.8359V135.164C171.158 171.933 131.354 194.914 99.5107 176.529L23.8828 132.865C-7.96049 114.48 -7.96136 68.5186 23.8818 50.1338L99.5107 6.4707ZM97.1777 43.7188C95.5074 43.9574 93.8609 44.2205 92.2383 44.5068C90.6156 44.7932 89.0164 45.4853 87.4414 46.583C82.7644 49.8283 78.9227 53.8134 75.916 58.5381C74.4365 60.9722 72.909 64.6476 71.334 69.5635C70.0454 73.9065 69.7352 78.178 70.4033 82.3779C70.7851 84.7642 71.549 87.198 72.6943 89.6797C73.792 92.1137 75.5817 94.8105 78.0635 97.7695C80.5453 100.729 83.6238 102.71 87.2988 103.712C90.9736 104.619 94.8871 104.762 99.0391 104.142C100.137 104.189 101.354 104.118 102.69 103.927C104.027 103.736 105.291 103.616 106.484 103.568C109.348 103.377 111.139 103.926 111.854 105.215C112.761 106.981 112.045 110.179 109.706 114.809C109.276 115.906 108.489 116.98 107.344 118.03C106.246 119.033 104.003 120.655 100.614 122.898C96.0806 125.81 94.1956 128.888 94.959 132.133C95.7226 134.71 97.0825 136.643 99.0391 137.932C100.948 139.172 103.12 139.769 105.554 139.722C108.036 139.626 110.613 138.911 113.286 137.574C116.054 136.238 118.608 134.305 120.946 131.775C124.86 127.862 127.675 123.901 129.394 119.892C132.734 112.16 133.355 104.952 131.255 98.2705C128.487 89.2982 123.571 83.9526 116.508 82.2344C114.503 81.7571 112.499 81.5667 110.494 81.6621C108.537 81.7098 106.7 81.8286 104.981 82.0195C103.311 82.1627 101.783 82.2589 100.399 82.3066C99.0632 82.3066 98.0372 82.0435 97.3213 81.5186C94.0282 79.0845 92.7637 76.6263 93.5273 74.1445C94.1957 72.0446 96.6294 69.1807 100.829 65.5537C103.215 62.4993 104.409 59.8741 104.409 57.6787C104.361 56.4857 103.645 55.2927 102.261 54.0996C103.024 53.2406 103.526 52.2146 103.765 51.0215C104.003 49.8284 103.908 48.6826 103.479 47.585C102.619 45.0077 100.519 43.7188 97.1777 43.7188Z" fill="#2563EB"/>
<path d="M228.499 60.8392C223.2 60.8392 219.049 58.983 216.046 55.2707L220.703 50.6135C222.728 53.2121 225.377 54.5114 228.651 54.5114C232.025 54.5114 233.713 53.0265 233.713 50.0566C233.713 48.8417 233.409 47.8968 232.802 47.2218C232.194 46.5468 231.249 46.0744 229.967 45.8044L226.727 45.1969C223.453 44.5894 221.04 43.4589 219.488 41.8052C217.969 40.1178 217.21 37.7892 217.21 34.8194C217.21 31.3771 218.222 28.7616 220.247 26.9729C222.272 25.1843 225.242 24.29 229.157 24.29C234.152 24.29 237.948 25.9099 240.547 29.1497L235.89 33.8069C235.012 32.727 234.017 31.9339 232.903 31.4277C231.823 30.8877 230.54 30.6177 229.056 30.6177C227.436 30.6177 226.254 30.9215 225.512 31.5289C224.803 32.1364 224.449 33.1151 224.449 34.465C224.449 35.6462 224.719 36.5405 225.259 37.148C225.833 37.7555 226.744 38.1942 227.992 38.4642L231.232 39.1223C232.953 39.4935 234.422 39.9491 235.636 40.4891C236.885 40.9953 237.898 41.6534 238.674 42.4633C239.484 43.2733 240.057 44.2351 240.395 45.3488C240.766 46.4625 240.952 47.7618 240.952 49.2467C240.952 53.0265 239.889 55.9119 237.763 57.9031C235.636 59.8605 232.548 60.8392 228.499 60.8392ZM246.301 60.2317V24.8974H267.562V31.2252H253.54V39.2235H265.436V45.5006H253.54V60.2317H246.301ZM283.372 60.8392C278.074 60.8392 273.923 58.983 270.919 55.2707L275.577 50.6135C277.601 53.2121 280.251 54.5114 283.524 54.5114C286.899 54.5114 288.586 53.0265 288.586 50.0566C288.586 48.8417 288.283 47.8968 287.675 47.2218C287.068 46.5468 286.123 46.0744 284.84 45.8044L281.601 45.1969C278.327 44.5894 275.914 43.4589 274.362 41.8052C272.843 40.1178 272.084 37.7892 272.084 34.8194C272.084 31.3771 273.096 28.7616 275.121 26.9729C277.146 25.1843 280.116 24.29 284.03 24.29C289.025 24.29 292.822 25.9099 295.42 29.1497L290.763 33.8069C289.886 32.727 288.89 31.9339 287.776 31.4277C286.697 30.8877 285.414 30.6177 283.929 30.6177C282.309 30.6177 281.128 30.9215 280.386 31.5289C279.677 32.1364 279.323 33.1151 279.323 34.465C279.323 35.6462 279.593 36.5405 280.133 37.148C280.706 37.7555 281.617 38.1942 282.866 38.4642L286.106 39.1223C287.827 39.4935 289.295 39.9491 290.51 40.4891C291.759 40.9953 292.771 41.6534 293.547 42.4633C294.357 43.2733 294.931 44.2351 295.269 45.3488C295.64 46.4625 295.825 47.7618 295.825 49.2467C295.825 53.0265 294.762 55.9119 292.636 57.9031C290.51 59.8605 287.422 60.8392 283.372 60.8392Z" fill="#172554"/>
<path d="M254.62 158.781C248.005 158.781 241.795 157.701 235.991 155.541C230.186 153.313 225.158 150.141 220.905 146.024C219.893 145.011 219.387 143.864 219.387 142.581C219.387 141.097 220.062 139.679 221.412 138.329C222.492 137.249 223.673 136.709 224.955 136.709C226.305 136.709 227.925 137.485 229.815 139.038C232.987 141.94 236.733 144.201 241.053 145.821C245.44 147.374 249.963 148.15 254.62 148.15C259.074 148.15 262.551 147.407 265.048 145.922C267.545 144.37 268.794 142.21 268.794 139.443C268.794 136.541 267.444 134.212 264.744 132.457C262.044 130.635 257.455 129.015 250.975 127.597C240.783 125.37 233.358 122.434 228.701 118.789C224.111 115.144 221.817 110.453 221.817 104.716C221.817 101.071 223.032 97.8314 225.461 94.9966C227.891 92.0943 231.266 89.8669 235.586 88.3145C239.973 86.6946 244.968 85.8846 250.57 85.8846C256.847 85.8846 262.416 86.9308 267.275 89.0232C272.203 91.0481 275.949 93.9167 278.513 97.6289C279.391 99.0464 279.83 100.261 279.83 101.274C279.762 102.961 278.918 104.412 277.298 105.627C276.421 106.235 275.409 106.538 274.261 106.538C272.169 106.538 270.448 105.728 269.098 104.109C267.14 101.746 264.508 99.8901 261.201 98.5401C257.961 97.1902 254.417 96.5153 250.57 96.5153C245.778 96.5153 242.032 97.2577 239.332 98.7426C236.7 100.16 235.383 102.151 235.383 104.716C235.383 107.281 236.666 109.407 239.231 111.094C241.863 112.714 246.385 114.267 252.797 115.752C259.884 117.439 265.588 119.363 269.908 121.523C274.227 123.615 277.366 126.112 279.323 129.015C281.348 131.917 282.361 135.393 282.361 139.443C282.361 143.29 281.213 146.699 278.918 149.669C276.624 152.571 273.384 154.832 269.199 156.452C265.014 158.004 260.154 158.781 254.62 158.781ZM319.301 158.781C313.497 158.781 308.435 157.734 304.115 155.642C299.795 153.55 296.454 150.613 294.092 146.834C291.797 142.986 290.649 138.498 290.649 133.368C290.649 125.066 293.045 118.62 297.838 114.031C302.697 109.441 309.514 107.146 318.289 107.146C323.689 107.146 328.447 107.99 332.564 109.677C336.749 111.364 339.989 113.727 342.284 116.764C344.646 119.734 345.827 123.143 345.827 126.99C345.827 130.23 344.781 132.727 342.689 134.482C340.664 136.237 337.762 137.114 333.982 137.114H303.507C303.507 140.894 304.823 143.763 307.456 145.72C310.156 147.61 314.104 148.555 319.301 148.555C324.769 148.555 329.426 147.34 333.273 144.91C335.433 143.56 337.12 142.885 338.335 142.885C339.483 142.885 340.596 143.425 341.676 144.505C342.824 145.652 343.398 146.901 343.398 148.251C343.398 149.871 342.723 151.153 341.373 152.098C338.538 154.258 335.231 155.912 331.451 157.059C327.671 158.207 323.621 158.781 319.301 158.781ZM329.932 127.8C331.079 127.8 331.889 127.597 332.362 127.192C332.834 126.72 333.071 125.977 333.071 124.965C333.071 122.603 331.721 120.746 329.021 119.396C326.389 118.047 322.811 117.372 318.289 117.372C313.767 117.372 310.189 118.317 307.557 120.206C304.992 122.096 303.71 124.627 303.71 127.8H329.932ZM360.729 158.781C358.637 158.781 357.017 158.241 355.87 157.161C354.722 156.081 354.148 154.596 354.148 152.706V113.221C354.148 111.263 354.688 109.778 355.768 108.766C356.916 107.686 358.502 107.146 360.527 107.146C362.552 107.146 364.138 107.686 365.285 108.766C366.433 109.846 367.006 111.331 367.006 113.221V116.562C369.099 113.862 371.529 111.803 374.296 110.386C377.131 108.901 380.168 108.158 383.408 108.158H385.635C387.795 108.158 389.449 108.631 390.596 109.576C391.811 110.453 392.419 111.736 392.419 113.423C392.419 115.11 391.811 116.427 390.596 117.372C389.449 118.249 387.795 118.688 385.635 118.688H382.193C377.671 118.688 374.06 120.139 371.36 123.041C368.728 125.876 367.411 129.791 367.411 134.786V152.706C367.411 154.596 366.804 156.081 365.589 157.161C364.374 158.241 362.754 158.781 360.729 158.781ZM422.897 158.781C414.865 158.781 409.297 154.292 406.192 145.315L395.46 114.537C395.258 113.929 395.156 113.356 395.156 112.816C395.156 111.263 395.831 109.947 397.181 108.867C398.599 107.787 400.421 107.247 402.648 107.247C403.998 107.247 405.146 107.551 406.091 108.158C407.036 108.766 407.711 109.61 408.116 110.689L419.455 143.594C419.995 145.281 420.535 146.496 421.075 147.239C421.615 147.914 422.222 148.251 422.897 148.251C423.572 148.251 424.18 147.914 424.72 147.239C425.26 146.496 425.8 145.281 426.34 143.594L437.679 110.689C438.084 109.61 438.759 108.766 439.704 108.158C440.649 107.551 441.796 107.247 443.146 107.247C445.441 107.247 447.263 107.787 448.613 108.867C449.963 109.88 450.638 111.196 450.638 112.816C450.638 113.356 450.537 113.929 450.334 114.537L439.603 145.315C436.498 154.292 430.929 158.781 422.897 158.781ZM467.254 100.869C464.757 100.869 462.732 100.194 461.179 98.8439C459.695 97.4265 458.952 95.6041 458.952 93.3767C458.952 91.1493 459.695 89.3607 461.179 88.0107C462.732 86.5933 464.757 85.8846 467.254 85.8846C469.751 85.8846 471.776 86.5933 473.329 88.0107C474.949 89.3607 475.759 91.1493 475.759 93.3767C475.759 95.6041 474.949 97.4265 473.329 98.8439C471.776 100.194 469.751 100.869 467.254 100.869ZM467.355 158.781C465.263 158.781 463.643 158.241 462.496 157.161C461.348 156.081 460.774 154.596 460.774 152.706V113.221C460.774 111.331 461.348 109.846 462.496 108.766C463.643 107.686 465.263 107.146 467.355 107.146C469.38 107.146 471 107.686 472.215 108.766C473.43 109.846 474.038 111.331 474.038 113.221V152.706C474.038 154.596 473.43 156.081 472.215 157.161C471 158.241 469.38 158.781 467.355 158.781ZM512.593 158.781C503.548 158.781 496.529 156.519 491.534 151.997C486.539 147.407 484.042 141.029 484.042 132.862C484.042 124.695 486.539 118.384 491.534 113.929C496.529 109.407 503.548 107.146 512.593 107.146C517.385 107.146 521.705 107.956 525.552 109.576C529.467 111.128 532.538 113.356 534.765 116.258C535.575 117.27 535.98 118.35 535.98 119.498C535.98 121.253 535.069 122.805 533.246 124.155C532.436 124.762 531.424 125.066 530.209 125.066C529.264 125.066 528.285 124.864 527.273 124.459C526.261 123.986 525.383 123.345 524.641 122.535C523.291 120.983 521.536 119.801 519.376 118.991C517.284 118.114 515.022 117.675 512.593 117.675C507.8 117.675 504.054 119.025 501.354 121.725C498.722 124.357 497.406 128.07 497.406 132.862C497.406 137.789 498.722 141.603 501.354 144.303C504.054 146.935 507.8 148.251 512.593 148.251C517.925 148.251 522.481 146.462 526.261 142.885C528.15 140.995 530.007 140.05 531.829 140.05C533.044 140.05 534.158 140.455 535.17 141.265C536.79 142.548 537.6 144.1 537.6 145.922C537.6 147.07 537.127 148.184 536.183 149.264C533.078 152.571 529.602 155.001 525.754 156.553C521.975 158.038 517.587 158.781 512.593 158.781ZM573.5 158.781C567.695 158.781 562.633 157.734 558.313 155.642C553.993 153.55 550.652 150.613 548.29 146.834C545.995 142.986 544.848 138.498 544.848 133.368C544.848 125.066 547.244 118.62 552.036 114.031C556.896 109.441 563.713 107.146 572.487 107.146C577.887 107.146 582.645 107.99 586.763 109.677C590.948 111.364 594.187 113.727 596.482 116.764C598.845 119.734 600.026 123.143 600.026 126.99C600.026 130.23 598.98 132.727 596.887 134.482C594.862 136.237 591.96 137.114 588.18 137.114H557.706C557.706 140.894 559.022 143.763 561.654 145.72C564.354 147.61 568.303 148.555 573.5 148.555C578.967 148.555 583.624 147.34 587.471 144.91C589.631 143.56 591.319 142.885 592.534 142.885C593.681 142.885 594.795 143.425 595.875 144.505C597.022 145.652 597.596 146.901 597.596 148.251C597.596 149.871 596.921 151.153 595.571 152.098C592.736 154.258 589.429 155.912 585.649 157.059C581.869 158.207 577.82 158.781 573.5 158.781ZM584.13 127.8C585.278 127.8 586.088 127.597 586.56 127.192C587.033 126.72 587.269 125.977 587.269 124.965C587.269 122.603 585.919 120.746 583.219 119.396C580.587 118.047 577.01 117.372 572.487 117.372C567.965 117.372 564.388 118.317 561.755 120.206C559.191 122.096 557.908 124.627 557.908 127.8H584.13ZM632.949 158.781C622.082 158.781 614.084 155.642 608.954 149.365C607.874 147.947 607.334 146.665 607.334 145.518C607.334 143.898 608.178 142.48 609.865 141.265C611.013 140.523 612.127 140.152 613.207 140.152C614.691 140.152 616.075 140.793 617.358 142.075C619.652 144.37 621.88 146.024 624.04 147.036C626.267 147.981 629.001 148.454 632.24 148.454C635.008 148.454 637.336 148.082 639.226 147.34C641.116 146.597 642.061 145.686 642.061 144.606C642.061 143.256 641.285 142.109 639.733 141.164C638.18 140.219 635.042 139.004 630.317 137.519C622.892 135.224 617.628 132.828 614.523 130.331C611.418 127.766 609.865 124.594 609.865 120.814C609.865 116.562 611.688 113.221 615.333 110.791C618.977 108.361 624.006 107.146 630.418 107.146C635.345 107.146 639.8 107.888 643.782 109.373C647.765 110.858 650.667 112.849 652.489 115.347C653.367 116.494 653.805 117.642 653.805 118.789C653.805 120.409 652.996 121.725 651.376 122.738C650.228 123.48 649.047 123.851 647.832 123.851C645.875 123.851 644.086 123.041 642.466 121.421C641.116 120.139 639.361 119.16 637.201 118.485C635.109 117.81 632.814 117.473 630.317 117.473C625.592 117.473 623.23 118.587 623.23 120.814C623.23 121.691 623.601 122.468 624.343 123.143C625.086 123.817 626.402 124.526 628.292 125.269C630.249 126.011 633.287 127.024 637.404 128.306C644.019 130.331 648.642 132.558 651.274 134.988C653.974 137.418 655.324 140.624 655.324 144.606C655.324 148.859 653.367 152.301 649.452 154.933C645.537 157.498 640.036 158.781 632.949 158.781Z" fill="#172554"/>
</svg>
