<svg width="172" height="183" viewBox="0 0 172 183" fill="none" xmlns="http://www.w3.org/2000/svg">
<rect x="33.939" y="64.2798" width="67.6602" height="116.809" transform="rotate(-33.6615 33.939 64.2798)" fill="white"/>
<path d="M99.5108 6.47034C131.354 -11.9141 171.158 11.0671 171.158 47.8365V135.165C171.158 171.934 131.354 194.914 99.5108 176.53L23.8818 132.866C-7.96113 114.481 -7.96043 68.5191 23.8828 50.1344L99.5108 6.47034ZM97.1787 43.7184C95.5083 43.957 93.861 44.2201 92.2383 44.5065C90.6157 44.7929 89.0172 45.485 87.4424 46.5826C82.7652 49.828 78.9228 53.8128 75.916 58.5377C74.4365 60.9718 72.909 64.6472 71.334 69.5631C70.0454 73.9061 69.7352 78.1777 70.4033 82.3776C70.7851 84.7639 71.5489 87.1985 72.6943 89.6803C73.7921 92.1143 75.5818 94.8112 78.0635 97.7701C80.5452 100.729 83.624 102.709 87.2988 103.712C90.9738 104.618 94.8878 104.762 99.04 104.141C100.138 104.189 101.355 104.117 102.691 103.926C104.028 103.736 105.292 103.617 106.485 103.569C109.349 103.378 111.139 103.927 111.855 105.215C112.761 106.981 112.046 110.179 109.707 114.808C109.278 115.906 108.49 116.98 107.345 118.03C106.247 119.032 104.004 120.655 100.615 122.898C96.0812 125.809 94.1954 128.888 94.959 132.133C95.7226 134.711 97.0833 136.644 99.04 137.932C100.949 139.173 103.121 139.769 105.555 139.721C108.036 139.626 110.614 138.91 113.286 137.574C116.054 136.238 118.608 134.305 120.946 131.775C124.86 127.861 127.676 123.9 129.395 119.891C132.735 112.16 133.356 104.953 131.256 98.2711C128.488 89.2984 123.571 83.9532 116.508 82.235C114.503 81.7577 112.499 81.5663 110.494 81.6617C108.537 81.7095 106.7 81.8292 104.981 82.0201C103.311 82.1633 101.784 82.2585 100.4 82.3063C99.064 82.3063 98.0372 82.0432 97.3213 81.5182C94.0286 79.0843 92.764 76.6267 93.5274 74.1451C94.1955 72.0452 96.6294 69.1814 100.829 65.5543C103.215 62.5 104.409 59.8747 104.409 57.6793C104.361 56.4862 103.646 55.2924 102.262 54.0992C103.025 53.2402 103.526 52.2141 103.765 51.0211C104.003 49.8279 103.908 48.6823 103.479 47.5846C102.619 45.0074 100.519 43.7185 97.1787 43.7184Z" fill="black"/>
</svg>
