<svg width="675" height="183" viewBox="0 0 675 183" fill="none" xmlns="http://www.w3.org/2000/svg">
<path d="M99.5108 6.47034C131.354 -11.9141 171.158 11.0671 171.158 47.8365V135.165C171.158 171.934 131.354 194.914 99.5108 176.53L23.8818 132.866C-7.96113 114.481 -7.96043 68.5191 23.8828 50.1344L99.5108 6.47034ZM97.1787 43.7184C95.5083 43.957 93.861 44.2201 92.2383 44.5065C90.6157 44.7929 89.0172 45.485 87.4424 46.5826C82.7652 49.828 78.9228 53.8128 75.916 58.5377C74.4365 60.9718 72.909 64.6472 71.334 69.5631C70.0454 73.9061 69.7352 78.1777 70.4033 82.3776C70.7851 84.7639 71.5489 87.1985 72.6943 89.6803C73.7921 92.1143 75.5818 94.8112 78.0635 97.7701C80.5452 100.729 83.624 102.709 87.2988 103.712C90.9738 104.618 94.8878 104.762 99.04 104.141C100.138 104.189 101.355 104.117 102.691 103.926C104.028 103.736 105.292 103.617 106.485 103.569C109.349 103.378 111.139 103.927 111.855 105.215C112.761 106.981 112.046 110.179 109.707 114.808C109.278 115.906 108.49 116.98 107.345 118.03C106.247 119.032 104.004 120.655 100.615 122.898C96.0812 125.809 94.1954 128.888 94.959 132.133C95.7226 134.711 97.0833 136.644 99.04 137.932C100.949 139.173 103.121 139.769 105.555 139.721C108.036 139.626 110.614 138.91 113.286 137.574C116.054 136.238 118.608 134.305 120.946 131.775C124.86 127.861 127.676 123.9 129.395 119.891C132.735 112.16 133.356 104.953 131.256 98.2711C128.488 89.2984 123.571 83.9532 116.508 82.235C114.503 81.7577 112.499 81.5663 110.494 81.6617C108.537 81.7095 106.7 81.8292 104.981 82.0201C103.311 82.1633 101.784 82.2585 100.4 82.3063C99.064 82.3063 98.0372 82.0432 97.3213 81.5182C94.0286 79.0843 92.764 76.6267 93.5274 74.1451C94.1955 72.0452 96.6294 69.1814 100.829 65.5543C103.215 62.5 104.409 59.8747 104.409 57.6793C104.361 56.4862 103.646 55.2924 102.262 54.0992C103.025 53.2402 103.526 52.2141 103.765 51.0211C104.003 49.8279 103.908 48.6823 103.479 47.5846C102.619 45.0074 100.519 43.7185 97.1787 43.7184Z" fill="black"/>
<path d="M243.307 60.8396C238.009 60.8396 233.858 58.9835 230.854 55.2712L235.511 50.614C237.536 53.2126 240.185 54.5119 243.459 54.5119C246.834 54.5119 248.521 53.027 248.521 50.0571C248.521 48.8422 248.217 47.8972 247.61 47.2223C247.002 46.5473 246.058 46.0748 244.775 45.8049L241.535 45.1974C238.262 44.5899 235.849 43.4594 234.296 41.8057C232.778 40.1183 232.018 37.7897 232.018 34.8198C232.018 31.3775 233.031 28.7621 235.056 26.9734C237.081 25.1848 240.05 24.2904 243.965 24.2904C248.96 24.2904 252.757 25.9103 255.355 29.1502L250.698 33.8074C249.82 32.7275 248.825 31.9344 247.711 31.4282C246.631 30.8882 245.349 30.6182 243.864 30.6182C242.244 30.6182 241.063 30.9219 240.32 31.5294C239.612 32.1369 239.257 33.1156 239.257 34.4655C239.257 35.6467 239.527 36.541 240.067 37.1485C240.641 37.7559 241.552 38.1947 242.801 38.4646L246.041 39.1227C247.762 39.494 249.23 39.9496 250.445 40.4895C251.693 40.9957 252.706 41.6538 253.482 42.4638C254.292 43.2737 254.866 44.2356 255.203 45.3493C255.575 46.4629 255.76 47.7622 255.76 49.2472C255.76 53.027 254.697 55.9124 252.571 57.9036C250.445 59.8609 247.357 60.8396 243.307 60.8396ZM261.109 60.2322V24.8979H282.37V31.2257H268.348V39.224H280.244V45.5011H268.348V60.2322H261.109ZM298.181 60.8396C292.882 60.8396 288.731 58.9835 285.728 55.2712L290.385 50.614C292.41 53.2126 295.059 54.5119 298.333 54.5119C301.707 54.5119 303.395 53.027 303.395 50.0571C303.395 48.8422 303.091 47.8972 302.484 47.2223C301.876 46.5473 300.931 46.0748 299.649 45.8049L296.409 45.1974C293.135 44.5899 290.722 43.4594 289.17 41.8057C287.651 40.1183 286.892 37.7897 286.892 34.8198C286.892 31.3775 287.904 28.7621 289.929 26.9734C291.954 25.1848 294.924 24.2904 298.839 24.2904C303.834 24.2904 307.63 25.9103 310.229 29.1502L305.572 33.8074C304.694 32.7275 303.699 31.9344 302.585 31.4282C301.505 30.8882 300.222 30.6182 298.738 30.6182C297.118 30.6182 295.936 30.9219 295.194 31.5294C294.485 32.1369 294.131 33.1156 294.131 34.4655C294.131 35.6467 294.401 36.541 294.941 37.1485C295.515 37.7559 296.426 38.1947 297.675 38.4646L300.914 39.1227C302.635 39.494 304.104 39.9496 305.318 40.4895C306.567 40.9957 307.58 41.6538 308.356 42.4638C309.166 43.2737 309.739 44.2356 310.077 45.3493C310.448 46.4629 310.634 47.7622 310.634 49.2472C310.634 53.027 309.571 55.9124 307.445 57.9036C305.318 59.8609 302.231 60.8396 298.181 60.8396Z" fill="#1E1B4B"/>
<path d="M269.428 158.781C262.813 158.781 256.604 157.701 250.799 155.541C244.994 153.314 239.966 150.141 235.714 146.024C234.701 145.012 234.195 143.864 234.195 142.582C234.195 141.097 234.87 139.679 236.22 138.329C237.3 137.249 238.481 136.709 239.764 136.709C241.113 136.709 242.733 137.486 244.623 139.038C247.796 141.94 251.542 144.202 255.861 145.821C260.249 147.374 264.771 148.15 269.428 148.15C273.883 148.15 277.359 147.408 279.856 145.923C282.354 144.37 283.602 142.21 283.602 139.443C283.602 136.541 282.252 134.212 279.553 132.457C276.853 130.635 272.263 129.015 265.783 127.597C255.591 125.37 248.167 122.434 243.51 118.789C238.92 115.144 236.625 110.453 236.625 104.716C236.625 101.071 237.84 97.8316 240.27 94.9968C242.7 92.0945 246.074 89.8671 250.394 88.3147C254.781 86.6948 259.776 85.8848 265.378 85.8848C271.655 85.8848 277.224 86.931 282.084 89.0234C287.011 91.0483 290.757 93.9169 293.322 97.6292C294.199 99.0466 294.638 100.262 294.638 101.274C294.57 102.961 293.727 104.413 292.107 105.627C291.229 106.235 290.217 106.539 289.07 106.539C286.977 106.539 285.256 105.729 283.906 104.109C281.949 101.746 279.316 99.8903 276.009 98.5404C272.769 97.1904 269.226 96.5155 265.378 96.5155C260.586 96.5155 256.84 97.2579 254.14 98.7428C251.508 100.16 250.192 102.151 250.192 104.716C250.192 107.281 251.474 109.407 254.039 111.095C256.671 112.715 261.194 114.267 267.606 115.752C274.693 117.439 280.396 119.363 284.716 121.523C289.036 123.615 292.174 126.113 294.132 129.015C296.157 131.917 297.169 135.393 297.169 139.443C297.169 143.29 296.022 146.699 293.727 149.669C291.432 152.571 288.192 154.832 284.007 156.452C279.823 158.005 274.963 158.781 269.428 158.781ZM334.11 158.781C328.305 158.781 323.243 157.735 318.923 155.642C314.603 153.55 311.262 150.614 308.9 146.834C306.605 142.987 305.458 138.498 305.458 133.368C305.458 125.066 307.854 118.62 312.646 114.031C317.506 109.441 324.323 107.146 333.097 107.146C338.497 107.146 343.256 107.99 347.373 109.677C351.558 111.365 354.797 113.727 357.092 116.764C359.455 119.734 360.636 123.143 360.636 126.99C360.636 130.23 359.59 132.727 357.497 134.482C355.472 136.237 352.57 137.114 348.79 137.114H318.316C318.316 140.894 319.632 143.763 322.264 145.72C324.964 147.61 328.913 148.555 334.11 148.555C339.577 148.555 344.234 147.34 348.082 144.91C350.241 143.56 351.929 142.885 353.144 142.885C354.291 142.885 355.405 143.425 356.485 144.505C357.632 145.653 358.206 146.901 358.206 148.251C358.206 149.871 357.531 151.154 356.181 152.099C353.346 154.259 350.039 155.912 346.259 157.06C342.479 158.207 338.43 158.781 334.11 158.781ZM344.74 127.8C345.888 127.8 346.698 127.597 347.17 127.193C347.643 126.72 347.879 125.978 347.879 124.965C347.879 122.603 346.529 120.747 343.829 119.397C341.197 118.047 337.62 117.372 333.097 117.372C328.575 117.372 324.998 118.317 322.365 120.207C319.801 122.097 318.518 124.628 318.518 127.8H344.74ZM375.538 158.781C373.445 158.781 371.825 158.241 370.678 157.161C369.531 156.081 368.957 154.596 368.957 152.706V113.221C368.957 111.263 369.497 109.778 370.577 108.766C371.724 107.686 373.31 107.146 375.335 107.146C377.36 107.146 378.946 107.686 380.094 108.766C381.241 109.846 381.815 111.331 381.815 113.221V116.562C383.907 113.862 386.337 111.803 389.104 110.386C391.939 108.901 394.977 108.159 398.216 108.159H400.444C402.604 108.159 404.257 108.631 405.405 109.576C406.62 110.453 407.227 111.736 407.227 113.423C407.227 115.111 406.62 116.427 405.405 117.372C404.257 118.249 402.604 118.688 400.444 118.688H397.002C392.479 118.688 388.868 120.139 386.168 123.041C383.536 125.876 382.22 129.791 382.22 134.786V152.706C382.22 154.596 381.612 156.081 380.397 157.161C379.183 158.241 377.563 158.781 375.538 158.781ZM437.706 158.781C429.674 158.781 424.105 154.292 421 145.315L410.269 114.537C410.066 113.93 409.965 113.356 409.965 112.816C409.965 111.263 410.64 109.947 411.99 108.867C413.407 107.787 415.229 107.247 417.457 107.247C418.807 107.247 419.954 107.551 420.899 108.159C421.844 108.766 422.519 109.61 422.924 110.69L434.263 143.594C434.803 145.282 435.343 146.496 435.883 147.239C436.423 147.914 437.031 148.251 437.706 148.251C438.381 148.251 438.988 147.914 439.528 147.239C440.068 146.496 440.608 145.282 441.148 143.594L452.487 110.69C452.892 109.61 453.567 108.766 454.512 108.159C455.457 107.551 456.605 107.247 457.955 107.247C460.249 107.247 462.072 107.787 463.422 108.867C464.772 109.88 465.447 111.196 465.447 112.816C465.447 113.356 465.345 113.93 465.143 114.537L454.411 145.315C451.306 154.292 445.738 158.781 437.706 158.781ZM482.063 100.869C479.565 100.869 477.54 100.194 475.988 98.8441C474.503 97.4267 473.761 95.6043 473.761 93.3769C473.761 91.1495 474.503 89.3609 475.988 88.0109C477.54 86.5935 479.565 85.8848 482.063 85.8848C484.56 85.8848 486.585 86.5935 488.137 88.0109C489.757 89.3609 490.567 91.1495 490.567 93.3769C490.567 95.6043 489.757 97.4267 488.137 98.8441C486.585 100.194 484.56 100.869 482.063 100.869ZM482.164 158.781C480.072 158.781 478.452 158.241 477.304 157.161C476.157 156.081 475.583 154.596 475.583 152.706V113.221C475.583 111.331 476.157 109.846 477.304 108.766C478.452 107.686 480.072 107.146 482.164 107.146C484.189 107.146 485.809 107.686 487.024 108.766C488.239 109.846 488.846 111.331 488.846 113.221V152.706C488.846 154.596 488.239 156.081 487.024 157.161C485.809 158.241 484.189 158.781 482.164 158.781ZM527.401 158.781C518.357 158.781 511.337 156.52 506.342 151.997C501.348 147.408 498.85 141.029 498.85 132.862C498.85 124.695 501.348 118.384 506.342 113.929C511.337 109.407 518.357 107.146 527.401 107.146C532.193 107.146 536.513 107.956 540.36 109.576C544.275 111.128 547.346 113.356 549.574 116.258C550.384 117.271 550.789 118.351 550.789 119.498C550.789 121.253 549.877 122.805 548.055 124.155C547.245 124.763 546.233 125.066 545.018 125.066C544.073 125.066 543.094 124.864 542.082 124.459C541.069 123.986 540.192 123.345 539.449 122.535C538.099 120.983 536.344 119.802 534.184 118.992C532.092 118.114 529.831 117.676 527.401 117.676C522.609 117.676 518.863 119.025 516.163 121.725C513.531 124.358 512.214 128.07 512.214 132.862C512.214 137.789 513.531 141.603 516.163 144.303C518.863 146.935 522.609 148.251 527.401 148.251C532.733 148.251 537.289 146.463 541.069 142.885C542.959 140.995 544.815 140.051 546.638 140.051C547.852 140.051 548.966 140.456 549.979 141.265C551.599 142.548 552.408 144.1 552.408 145.923C552.408 147.07 551.936 148.184 550.991 149.264C547.886 152.571 544.41 155.001 540.563 156.553C536.783 158.038 532.396 158.781 527.401 158.781ZM588.308 158.781C582.504 158.781 577.441 157.735 573.122 155.642C568.802 153.55 565.461 150.614 563.098 146.834C560.804 142.987 559.656 138.498 559.656 133.368C559.656 125.066 562.052 118.62 566.845 114.031C571.704 109.441 578.521 107.146 587.296 107.146C592.696 107.146 597.454 107.99 601.571 109.677C605.756 111.365 608.996 113.727 611.291 116.764C613.653 119.734 614.834 123.143 614.834 126.99C614.834 130.23 613.788 132.727 611.696 134.482C609.671 136.237 606.769 137.114 602.989 137.114H572.514C572.514 140.894 573.83 143.763 576.463 145.72C579.163 147.61 583.111 148.555 588.308 148.555C593.776 148.555 598.433 147.34 602.28 144.91C604.44 143.56 606.127 142.885 607.342 142.885C608.49 142.885 609.603 143.425 610.683 144.505C611.831 145.653 612.404 146.901 612.404 148.251C612.404 149.871 611.73 151.154 610.38 152.099C607.545 154.259 604.237 155.912 600.458 157.06C596.678 158.207 592.628 158.781 588.308 158.781ZM598.939 127.8C600.086 127.8 600.896 127.597 601.369 127.193C601.841 126.72 602.078 125.978 602.078 124.965C602.078 122.603 600.728 120.747 598.028 119.397C595.395 118.047 591.818 117.372 587.296 117.372C582.774 117.372 579.196 118.317 576.564 120.207C573.999 122.097 572.717 124.628 572.717 127.8H598.939ZM647.758 158.781C636.891 158.781 628.893 155.642 623.763 149.365C622.683 147.948 622.143 146.665 622.143 145.518C622.143 143.898 622.987 142.48 624.674 141.265C625.821 140.523 626.935 140.152 628.015 140.152C629.5 140.152 630.884 140.793 632.166 142.075C634.461 144.37 636.688 146.024 638.848 147.036C641.076 147.981 643.809 148.454 647.049 148.454C649.816 148.454 652.145 148.083 654.035 147.34C655.925 146.598 656.87 145.686 656.87 144.607C656.87 143.257 656.094 142.109 654.541 141.164C652.989 140.219 649.85 139.004 645.125 137.519C637.701 135.225 632.436 132.828 629.331 130.331C626.226 127.766 624.674 124.594 624.674 120.814C624.674 116.562 626.496 113.221 630.141 110.791C633.786 108.361 638.814 107.146 645.227 107.146C650.154 107.146 654.609 107.889 658.591 109.374C662.573 110.858 665.475 112.85 667.298 115.347C668.175 116.494 668.614 117.642 668.614 118.789C668.614 120.409 667.804 121.725 666.184 122.738C665.037 123.48 663.856 123.851 662.641 123.851C660.683 123.851 658.895 123.041 657.275 121.422C655.925 120.139 654.17 119.16 652.01 118.485C649.918 117.811 647.623 117.473 645.125 117.473C640.401 117.473 638.038 118.587 638.038 120.814C638.038 121.692 638.409 122.468 639.152 123.143C639.894 123.818 641.211 124.526 643.1 125.269C645.058 126.011 648.095 127.024 652.212 128.306C658.827 130.331 663.451 132.558 666.083 134.988C668.783 137.418 670.133 140.624 670.133 144.607C670.133 148.859 668.175 152.301 664.261 154.933C660.346 157.498 654.845 158.781 647.758 158.781Z" fill="#1E1B4B"/>
</svg>
