<svg width="172" height="183" viewBox="0 0 172 183" fill="none" xmlns="http://www.w3.org/2000/svg">
<rect x="60" y="38" width="88" height="106" fill="white"/>
<path d="M99.5107 6.4707C131.354 -11.9138 171.158 11.0666 171.158 47.8359V135.164C171.158 171.933 131.354 194.914 99.5107 176.529L23.8828 132.865C-7.96049 114.48 -7.96136 68.5186 23.8818 50.1338L99.5107 6.4707ZM97.1777 43.7188C95.5074 43.9574 93.8609 44.2205 92.2383 44.5068C90.6156 44.7932 89.0164 45.4853 87.4414 46.583C82.7644 49.8283 78.9227 53.8134 75.916 58.5381C74.4365 60.9722 72.909 64.6476 71.334 69.5635C70.0454 73.9065 69.7352 78.178 70.4033 82.3779C70.7851 84.7642 71.549 87.198 72.6943 89.6797C73.792 92.1137 75.5817 94.8105 78.0635 97.7695C80.5453 100.729 83.6238 102.71 87.2988 103.712C90.9736 104.619 94.8871 104.762 99.0391 104.142C100.137 104.189 101.354 104.118 102.69 103.927C104.027 103.736 105.291 103.616 106.484 103.568C109.348 103.377 111.139 103.926 111.854 105.215C112.761 106.981 112.045 110.179 109.706 114.809C109.276 115.906 108.489 116.98 107.344 118.03C106.246 119.033 104.003 120.655 100.614 122.898C96.0806 125.81 94.1956 128.888 94.959 132.133C95.7226 134.71 97.0825 136.643 99.0391 137.932C100.948 139.172 103.12 139.769 105.554 139.722C108.036 139.626 110.613 138.911 113.286 137.574C116.054 136.238 118.608 134.305 120.946 131.775C124.86 127.862 127.675 123.901 129.394 119.892C132.734 112.16 133.355 104.952 131.255 98.2705C128.487 89.2982 123.571 83.9526 116.508 82.2344C114.503 81.7571 112.499 81.5667 110.494 81.6621C108.537 81.7098 106.7 81.8286 104.981 82.0195C103.311 82.1627 101.783 82.2589 100.399 82.3066C99.0632 82.3066 98.0372 82.0435 97.3213 81.5186C94.0282 79.0845 92.7637 76.6263 93.5273 74.1445C94.1957 72.0446 96.6294 69.1807 100.829 65.5537C103.215 62.4993 104.409 59.8741 104.409 57.6787C104.361 56.4857 103.645 55.2927 102.261 54.0996C103.024 53.2406 103.526 52.2146 103.765 51.0215C104.003 49.8284 103.908 48.6826 103.479 47.585C102.619 45.0077 100.519 43.7188 97.1777 43.7188Z" fill="#2563EB"/>
</svg>
